
<svg xmlns="http://www.w3.org/2000/svg" version="1.1" xmlns:xlink="http://www.w3.org/1999/xlink" preserveAspectRatio="none" x="0px" y="0px" width="103px" height="153px" viewBox="0 0 103 153">
<defs>
<g id="Layer1_0_FILL">
<path fill="#FFFFFF" stroke="none" d="
M 95.55 58.45
Q 94.7001953125 59.2990234375 94.7 60.5
L 94.7 82.5
Q 94.6962890625 100.446875 81.95 113.1 69.296875 125.8462890625 51.35 125.85 33.39921875 125.8486328125 20.65 113.1 7.9982421875 100.44765625 8 82.5
L 8 60.5
Q 7.999609375 59.2990234375 7.15 58.45 6.30078125 57.6001953125 5.1 57.6 3.8990234375 57.6001953125 3.05 58.45 2.2001953125 59.2990234375 2.2 60.5
L 2.2 82.5
Q 2.2015625 102.8521484375 16.55 117.2 31.0009765625 131.6515625 51.35 131.65 71.703125 131.6537109375 86.05 117.2 100.5037109375 102.853125 100.5 82.5
L 100.5 60.5
Q 100.499609375 59.2990234375 99.65 58.45 98.80078125 57.6001953125 97.6 57.6 96.3990234375 57.6001953125 95.55 58.45
M 53.2 1.3
L 49.5 1.3
Q 38.1 1.3 30 10.1 21.9 18.9 21.9 31.3
L 21.9 45.15 38.55 45.15 38.55 49.75 21.9 49.75 21.9 56.95 38.55 56.95 38.55 61.55 21.9 61.55 21.9 68.2 38.55 68.2 38.55 72.8 21.9 72.8 21.9 82.3
Q 21.9 94.7 30 103.5 38.1 112.3 49.5 112.3
L 53.2 112.3
Q 64.6 112.3 72.7 103.5 80.8 94.7 80.8 82.3
L 80.8 72.8 63.15 72.8 63.15 68.2 80.8 68.2 80.8 61.55 63.15 61.55 63.15 56.95 80.8 56.95 80.8 49.75 63.15 49.75 63.15 45.15 80.8 45.15 80.8 31.3
Q 80.8 18.9 72.7 10.1 64.6 1.3 53.2 1.3 Z"/>
</g>

<g id="Layer0_0_FILL">
<path fill="#FFFFFF" stroke="none" d="
M 49 126.7
L 49 145.7 23 145.7 23 150.7 78 150.7 78 145.7 55 145.7 55 126.7 49 126.7 Z"/>
</g>
</defs>

<g transform="matrix( 1, 0, 0, 1, 0,0) ">
<use xlink:href="#Layer1_0_FILL"/>
</g>

<g transform="matrix( 1, 0, 0, 1, 0,0) ">
<use xlink:href="#Layer0_0_FILL"/>
</g>
</svg>
