
<svg xmlns="http://www.w3.org/2000/svg" version="1.1" xmlns:xlink="http://www.w3.org/1999/xlink" preserveAspectRatio="none" x="0px" y="0px" width="265px" height="100px" viewBox="0 0 265 100">
<defs>
<g id="Layer0_0_FILL">
<path fill="#FFFFFF" stroke="none" d="
M 36 18.05
L 1.1 18.05 22 57.05 1.3 100.05 36 100.05 36 18.05
M 219.95 83
L 219.95 1 43.95 1 43.95 83 219.95 83
M 164.05 11.65
L 173.5 40.75 173.65 40.75 177.95 25.15 182.6 11.65 190.2 11.65 170.95 70.9 163.35 70.9 169.8 50.2 159.65 20.35 162.05 18.8 162.05 18.3 154.4 18.3 154.4 11.65 164.05 11.65
M 123.55 18.9
L 123.55 11.75 142.1 11.75 150.9 70.9 143.6 70.9 141.35 55.5 129 55.5 126.7 70.9 119.45 70.9 126.7 21.3 129.75 19.5 129.75 18.9 123.55 18.9
M 101.3 11.8
L 110.15 20.75 110.15 35.2 105.8 40.4 111.75 46.25 111.75 62.05 102.85 70.9 83.95 70.9 83.95 21.55 86.95 19.7 86.95 19.15 79.7 19.15 79.7 11.8 101.3 11.8
M 99.4 44.6
L 91.2 44.6 91.2 63.65 99.9 63.65 104.45 59.05 104.45 49.55 99.4 44.6
M 98.3 19.15
L 91.2 19.15 91.2 37.35 98.7 37.35 102.85 32.35 102.85 23.7 98.3 19.15
M 135.85 18.9
L 134.4 18.9 130.05 48.3 140.3 48.3 135.85 18.9
M 243.1 57.05
L 264 18.05 229.1 18.05 229.1 100.05 263.8 100.05 243.1 57.05 Z"/>
</g>
</defs>

<g transform="matrix( 1, 0, 0, 1, 0,0) ">
<use xlink:href="#Layer0_0_FILL"/>
</g>
</svg>
