<svg xmlns="http://www.w3.org/2000/svg" xmlns:xlink="http://www.w3.org/1999/xlink" preserveAspectRatio="none" width="155" height="85" viewBox="0 0 155 85"><defs><path d="M94.95 6q-3-3-7.4-3-3.65 0-6.2 2.05-3.7-2.75-8.55-2.75-5.75 0-9.9 3.9-1.65 1.85-2.55 3.95-.45.2-.7.45-4.15 4.15-4.15 10.15 0 3.95 1.85 7.15-.25 1.4-.25 3 0 10.65 6.45 18.25 2.8 3.2 6.25 5.3-.25.45-.25.9v2.8q0 3.7 2.8 6.45 2.75 2.8 6.45 2.8h2.75q3.7 0 6.5-2.8 2.75-2.75 2.75-6.45v-2.8q0-1.15-.25-2.3 2.1-1.6 3.95-3.9 5.55-6.7 6.45-15.25.45-.7.95-1.15 3.2-3 3.2-7.4 0-4.35-3.2-7.6-1.85-1.85-3.95-2.55v-1.85q0-4.35-3-7.35z" id="a"/><path d="M38.4 34.15q-.2-7.85-6.9-10.6-2.3-1.2-4.85-1.2H24.8q-2.3.25-4.85 1.2-6.7 2.75-6.9 10.6-.5 13.4-1.2 17.3-1.15 6.45-3.9 7.4H20.4v4.6h-7.35Q7 63.45 5.4 66.7l-3.45 6.45q-.45.9-.7 1.6v1.65q.7 2.05 6 2.3H33.1q.25-.95.95-1.85l5.5-10.4q.7-1.4 2.1-2.55-1.6-.45-3.95-.45h-5.75v-4.6H43.5q-2.8-.95-3.95-7.4-.7-3.9-1.15-17.3M108.1 84q13.4-.25 8.8-8.8l-5.55-10.35q-2.8-5.1-12-5.1H59.4q-9.45 0-12 5.1L41.85 75.2q-.9 1.65-1.15 2.8-.2 1.15 0 2.3.95 3.45 9.7 3.7h57.7m33.25-49.85q-.25-7.85-6.95-10.6-2.3-1.2-4.85-1.2h-1.8q-2.35.25-4.85 1.2-6.7 2.75-6.95 10.6-.45 13.4-1.15 17.3-1.15 6.45-3.9 7.4h12.65v4.6h-6.2q.9.95 1.4 1.85l5.5 10.4q.95 1.6 1.15 3h20.8q8.3-.25 5.3-5.55l-3.25-6.45q-1.85-3.25-7.6-3.25h-5.75v-4.6h11.5q-2.75-.95-3.9-7.4-.7-3.9-1.15-17.3z" id="b"/></defs><use xlink:href="#a"/><use xlink:href="#b"/></svg>