<svg xmlns="http://www.w3.org/2000/svg" xmlns:xlink="http://www.w3.org/1999/xlink" preserveAspectRatio="none" width="20" height="25" viewBox="0 0 20 25"><defs><path fill="#d19e45" d="M8.9 20.8q0 1.15.8 1.9.85.75 2 .75h.15q1.2 0 2-.75t.8-1.9v-4.2q0-1.15-.8-1.9t-2-.75h-.15q-1.15 0-2 .75-.8.8-.8 1.9v4.2m1.6-4.2q0-.55.45-.85.35-.25.85-.25.45 0 .85.3.4.3.4.8v4.2q0 .5-.4.8-.4.3-.85.3-.45 0-.85-.3-.45-.35-.45-.8v-4.2m5-7.45l-.85-1.2L3.9 16.1l.9 1.2 10.7-8.15m-5-.6V4.4q0-1.15-.8-1.9-.85-.75-2-.75h-.15q-1.15 0-2 .75-.8.75-.8 1.9v4.15q0 1.15.8 1.95.85.75 2 .75h.15q1.15 0 2-.75.8-.8.8-1.95M6.35 4.4q0-.55.45-.85.35-.25.8-.25.5 0 .9.3t.4.8v4.15q0 .5-.4.8-.4.3-.9.3-.4 0-.8-.3-.45-.3-.45-.8V4.4z" id="a"/></defs><use xlink:href="#a"/></svg>