<svg xmlns="http://www.w3.org/2000/svg" viewBox="0 0 108 40" enable-background="new 0 0 108 40"><g fill="#fff"><path d="M37 17.6v7.7h3.6l1.9-1.9v-3.8l-2.1-2zM8.6 22.6L.1 40h14.2V6.8H0zM41.8 12.6V9.1l-1.9-1.9H37v7.4h3.1zM17.6 0v33.1h72.3V0H17.6zm27.9 24.6l-3.7 3.6H34v-20l1.2-.7v-.3h-3v-3h8.9l3.6 3.6v5.9L43 15.9l2.4 2.4v6.3zm13 3.6l-.9-6.2h-5.1l-.9 6.2h-3l3-20.1 1.3-.7v-.3h-2.5V4.3H58l3.6 23.9h-3.1zm11.3 0h-3.1l2.6-8.4-4.2-12.1 1-.6v-.2H63V4.2h4L70.8 16h.1l1.8-6.3 1.9-5.5h3.1l-7.9 24zM54.8 7.1L53 19h4.2L55.4 7.1zM108 6.8H93.7V40h14.2l-8.5-17.4z"/></g></svg>