
<svg xmlns="http://www.w3.org/2000/svg" version="1.1" xmlns:xlink="http://www.w3.org/1999/xlink" preserveAspectRatio="none" x="0px" y="0px" width="100px" height="100px" viewBox="0 0 100 100">
<defs>
<g id="Layer0_0_FILL">
<path fill="#ffffff" stroke="none" d="
M 83.8 84
Q 97.8 70 97.8 50.2 97.8 30.4 83.8 16.4 69.8 2.4 50 2.4 30.2 2.4 16.2 16.4 2.2 30.4 2.2 50.2 2.2 70 16.2 84 30.2 98 50 98 69.8 98 83.8 84
M 96.8 50.2
Q 96.8 69.6 83.1 83.3 69.4 97 50 97 30.6 97 16.9 83.3 3.2 69.6 3.2 50.2 3.2 30.8 16.9 17.1 30.6 3.4 50 3.4 69.4 3.4 83.1 17.1 96.8 30.8 96.8 50.2
M 71.15 48.95
L 42.55 26.7
Q 42 26.3 41.35 26.35 40.7 26.4 40.25 26.9 39.8 27.4 39.8 28.05
L 39.8 72.85
Q 39.8 73.5 40.25 74 40.7 74.5 41.4 74.55 42.05 74.6 42.55 74.2
L 71.15 51.65
Q 71.55 51.3 71.75 50.8 71.9 50.3 71.75 49.8 71.55 49.3 71.15 48.95
M 67.35 50.35
L 43.2 69.35 43.2 31.55 67.35 50.35 Z"/>
</g>
</defs>

<g transform="matrix( 1, 0, 0, 1, 0,0) ">
<use xlink:href="#Layer0_0_FILL"/>
</g>
</svg>
