
<svg xmlns="http://www.w3.org/2000/svg" version="1.1" xmlns:xlink="http://www.w3.org/1999/xlink" preserveAspectRatio="none" x="0px" y="0px" width="155px" height="85px" viewBox="0 0 155 85">
<defs>
<g id="Layer2_0_FILL">
<path fill="#000000" stroke="none" d="
M 94.95 6
Q 91.95 3 87.55 3 83.9 3 81.35 5.05 77.65 2.3 72.8 2.3 67.05 2.3 62.9 6.2 61.25 8.05 60.35 10.15 59.9 10.35 59.65 10.6 55.5 14.75 55.5 20.75 55.5 24.7 57.35 27.9 57.1 29.3 57.1 30.9 57.1 41.55 63.55 49.15 66.35 52.35 69.8 54.45 69.55 54.9 69.55 55.35
L 69.55 58.15
Q 69.55 61.85 72.35 64.6 75.1 67.4 78.8 67.4
L 81.55 67.4
Q 85.25 67.4 88.05 64.6 90.8 61.85 90.8 58.15
L 90.8 55.35
Q 90.8 54.2 90.55 53.05 92.65 51.45 94.5 49.15 100.05 42.45 100.95 33.9 101.4 33.2 101.9 32.75 105.1 29.75 105.1 25.35 105.1 21 101.9 17.75 100.05 15.9 97.95 15.2 97.95 14.3 97.95 13.35 97.95 9 94.95 6 Z"/>
</g>

<g id="Layer1_0_FILL">
<path fill="#000000" stroke="none" d="
M 38.4 34.15
Q 38.2 26.3 31.5 23.55 29.2 22.35 26.65 22.35
L 24.8 22.35
Q 22.5 22.6 19.95 23.55 13.25 26.3 13.05 34.15 12.55 47.55 11.85 51.45 10.7 57.9 7.95 58.85
L 20.4 58.85 20.4 63.45 13.05 63.45
Q 7 63.45 5.4 66.7
L 1.95 73.15
Q 1.5 74.05 1.25 74.75 1.25 75.7 1.25 76.4 1.95 78.45 7.25 78.7
L 33.1 78.7
Q 33.35 77.75 34.05 76.85
L 39.55 66.45
Q 40.25 65.05 41.65 63.9 40.05 63.45 37.7 63.45
L 31.95 63.45 31.95 58.85 43.5 58.85
Q 40.7 57.9 39.55 51.45 38.85 47.55 38.4 34.15
M 108.1 84
Q 121.5 83.75 116.9 75.2
L 111.35 64.85
Q 108.55 59.75 99.35 59.75
L 59.4 59.75
Q 49.95 59.75 47.4 64.85
L 41.85 75.2
Q 40.95 76.85 40.7 78 40.5 79.15 40.7 80.3 41.65 83.75 50.4 84
L 108.1 84
M 141.35 34.15
Q 141.1 26.3 134.4 23.55 132.1 22.35 129.55 22.35
L 127.75 22.35
Q 125.4 22.6 122.9 23.55 116.2 26.3 115.95 34.15 115.5 47.55 114.8 51.45 113.65 57.9 110.9 58.85
L 123.55 58.85 123.55 63.45 117.35 63.45
Q 118.25 64.4 118.75 65.3
L 124.25 75.7
Q 125.2 77.3 125.4 78.7
L 146.2 78.7
Q 154.5 78.45 151.5 73.15
L 148.25 66.7
Q 146.4 63.45 140.65 63.45
L 134.9 63.45 134.9 58.85 146.4 58.85
Q 143.65 57.9 142.5 51.45 141.8 47.55 141.35 34.15 Z"/>
</g>
</defs>

<g transform="matrix( 1, 0, 0, 1, 0,0) ">
<use xlink:href="#Layer2_0_FILL"/>
</g>

<g transform="matrix( 1, 0, 0, 1, 0,0) ">
<use xlink:href="#Layer1_0_FILL"/>
</g>
</svg>
