<svg xmlns="http://www.w3.org/2000/svg" xmlns:xlink="http://www.w3.org/1999/xlink" preserveAspectRatio="none" width="100" height="80" viewBox="0 0 100 80"><defs><path fill="#c39c4d" d="M70.75 41.55q1.3-1.8 2.2-3.75 2.2-4.65 2.2-10.25 0-10.15-7.25-17.25-7.25-7.15-17.45-7.15-10.25 0-17.5 7.15-7.2 7.1-7.2 17.25 0 5.4 2.05 9.95 1.05 2.35 2.65 4.45l19.6 32.9.25.95 20.45-34.25M65.55 28q0 6.1-4.35 10.4-4.25 4.3-10.4 4.3-6.1 0-10.45-4.3Q36.1 34.1 36.1 28q0-6.15 4.25-10.45 4.35-4.3 10.45-4.3 6.15 0 10.4 4.3 4.35 4.3 4.35 10.45M42.5 19.4l-.1.1q-3.35 3.4-3.35 8.3 0 1.65.35 3.1.8 3 3.1 5.3 3.45 3.45 8.4 3.5 4.55-.05 7.9-2.95v-.05l.5-.5q2.3-2.3 3.1-5.3.35-1.45.4-3.1-.05-3.5-1.75-6.25-.7-1.1-1.65-2.05l-.1-.1q-3.45-3.45-8.4-3.45t-8.4 3.45m.7.9l.1-.1q3.15-3.15 7.6-3.1 4.45-.05 7.6 3.1l.1.1q.85.85 1.45 1.85h.05q1.55 2.45 1.55 5.65 0 1.45-.35 2.8-.7 2.7-2.8 4.8-.25.25-.45.5H58q-3 2.65-7.1 2.65-4.45 0-7.6-3.15-2.1-2.1-2.8-4.8-.35-1.35-.3-2.8-.05-4.4 3-7.5z" id="a"/><path fill="#c39c4d" d="M5.1 40.45q0 3.85 1.45 7.05.75 1.65 1.85 3.15L22.25 73.9l.2.65L34.1 55.1l-4.05-6.8q-3 2.85-7.25 2.85-4.3 0-7.4-3-3-3.05-3-7.35 0-4.35 3-7.4 2.7-2.65 6.3-3-.15-1.4-.15-2.85 0-1.45.15-2.8l.2-1.5q-6.85.25-11.7 5.05-5.1 5-5.1 12.15m12.35-4.85q.2-.1.3-.3 1.85-1.8 4.4-2 .25-.05.4-.2.15-.2.15-.45-.05-.25-.2-.4-.2-.15-.45-.1-3.05.25-5.25 2.45-.05 0-.05.05-2.4 2.45-2.4 6 0 1.2.25 2.25.55 2.15 2.2 3.8 2.5 2.5 6.05 2.55 3.3-.05 5.7-2.15v-.05l.35-.35.2-.2q.15-.15.2-.4-.05-.25-.2-.4-.15-.15-.4-.15t-.4.15l-.2.2q-.15.15-.3.35h-.05q-2.05 1.85-4.9 1.85-3.05 0-5.25-2.2-1.45-1.45-1.9-3.3-.25-.95-.2-1.95-.05-2.95 1.95-5.05m70.95 5.2q0 4.3-3 7.35-3.1 3-7.4 3-4.25 0-7.25-2.85l-4.05 6.8 11.65 19.45.2-.65L92.4 50.65q1.1-1.5 1.85-3.15 1.45-3.2 1.45-7.05 0-7.15-5.1-12.15-4.85-4.8-11.7-5.05l.2 1.5q.15 1.35.15 2.8 0 1.45-.15 2.85 3.6.35 6.3 3 3 3.05 3 7.4m-5.35-5.5q.1.2.35.3 1.95 2.1 1.95 5.05 0 1-.25 1.95-.45 1.85-1.9 3.3-2.2 2.2-5.25 2.2-2.85 0-4.9-1.85l-.35-.35-.2-.2q-.15-.15-.4-.15t-.4.15q-.15.15-.15.4t.15.4l.2.2.35.35.05.05q2.35 2.1 5.65 2.15Q81.5 49.2 84 46.7q1.65-1.65 2.2-3.8.25-1.05.3-2.25-.05-3.55-2.45-6 0-.05-.05-.05-2.2-2.2-5.25-2.45-.25-.05-.4.1-.2.15-.2.4-.05.25.1.45.15.15.4.2 2.55.2 4.4 2z" id="b"/></defs><use xlink:href="#a"/><use xlink:href="#b"/></svg>