<svg xmlns="http://www.w3.org/2000/svg" xmlns:xlink="http://www.w3.org/1999/xlink" preserveAspectRatio="none" width="105" height="130" viewBox="0 0 105 130"><defs><path fill="#c39c4d" d="M21.55 31.45v5.95h-4v-5.95h-1.8q-2 0-2 2v93.85q0 2 2 2h7.75q2 0 2-2V33.45q0-2-2-2h-1.95m39-29.35q-6.35 0-10.85 11.55-4.45 11.55-4.45 27.9 0 14.9 3.7 25.85v59.2q0 2 2 2h7.75q2 0 2-2V2.1h-.15m32.7 30.65q0-2-2-2H83.5q-2 0-2 2v93.85q0 2 2 2h7.75q2 0 2-2V32.75z" id="a"/><path fill="#c39c4d" d="M27 1.75h-5.45v25.4h-4V1.75H11.7v25.6H8.6V1.75H4.4Q3 7.95 3 15.25q0 13.85 4.95 23.6Q12.9 48.6 19.9 48.6q7 0 11.95-9.75 4.95-9.75 4.95-23.6 0-7.3-1.35-13.5h-5.1v25.4H27V1.75M99.6 8.3Q94.65 2 87.65 2q-7 0-11.95 6.3-4.95 6.3-4.95 15.25T75.7 38.8q4.95 6.3 11.95 6.3 7 0 11.95-6.3 4.95-6.3 4.95-15.25T99.6 8.3z" id="b"/></defs><use xlink:href="#a"/><use xlink:href="#b"/></svg>