
<svg xmlns="http://www.w3.org/2000/svg" version="1.1" xmlns:xlink="http://www.w3.org/1999/xlink" preserveAspectRatio="none" x="0px" y="0px" width="62px" height="62px" viewBox="0 0 62 62">
<defs>
<g id="Layer0_0_FILL">
<path fill="#c39c4d" stroke="none" d="
M 43.75 10.2
Q 43.05 10.2 43.05 10.45 42.45 7.15 39.4 4.25 36.4 1.1 29.1 1.35 21.6 1.6 18.35 7.05 15.8 10.8 15.45 11.15 12.9 10.2 10.8 10.45 6.2 10.8 2.95 17.7 -0.55 24.6 5.6 28.5 8.3 30.05 11.45 30.55
L 11.45 48.95
Q 11.45 49.2 11.55 49.3
L 11.55 59.35 48 59.35 48 49.3
Q 48.15 49.2 48.15 48.95
L 48.15 29.95
Q 54.55 29.45 57.35 25.6 60.6 21.2 57.2 15.05 54.45 10.05 47.9 10.05 45.1 10.2 43.75 10.2
M 43.75 11.65
Q 45.1 11.65 47.9 11.55 53.45 11.55 55.9 15.75 58.8 20.95 56.1 24.75 53.45 28.25 47.4 28.5 47.05 28.5 46.9 28.75 46.7 28.95 46.7 29.2
L 46.7 48.95 38.7 48.95 38.7 39.15 35.55 39.15 35.55 48.95 31.4 48.95 31.4 35.25 28.25 35.25 28.25 48.95 25 48.95 25 39.15 22.1 39.15 22.1 48.95 12.9 48.95 12.9 29.8
Q 12.9 29.55 12.75 29.35 12.5 29.1 12.3 29.1 9 28.85 6.35 27.25 1.35 24.1 4.3 18.3 7.2 12.25 10.95 11.9 12.75 11.65 15.05 12.6 15.2 12.6 15.3 12.6 16.25 12.85 19.55 7.9
L 19.55 7.75
Q 22.55 3.05 29.1 2.8 35.65 2.55 38.45 5.25 41.1 7.9 41.6 10.9 41.7 11.65 43.75 11.65 Z"/>
</g>
</defs>

<g transform="matrix( 1, 0, 0, 1, 0,0) ">
<use xlink:href="#Layer0_0_FILL"/>
</g>
</svg>
