<svg xmlns="http://www.w3.org/2000/svg" xmlns:xlink="http://www.w3.org/1999/xlink" preserveAspectRatio="none" width="30" height="32" viewBox="0 0 30 32"><defs><path fill="#c39c4d" d="M11.7 2.3q0-.85-.5-1.5H7.4q-.55.65-.55 1.5v5.45Q5.6 8.2 4.6 9.2q-1.9 1.95-1.9 4.65v16q0 .8.6 1.4.6.6 1.4.6h9.15q.8 0 1.4-.6.6-.6.6-1.4v-16q0-2.7-1.95-4.65-1-1-2.2-1.45V2.3M6 10.55q.45-.5.95-.65-.5 1.4-.6 2.55-.1.55-.05.85V16h7.1v2.45H6.3v2h7.05v5.75H6.3v3.25H5q-.05-13.6 0-16.25 0-1.65 1-2.65m22.35 12.4V18.2q0-1.05-.55-1.55h-9.35q-.55.5-.55 1.55v5.3q0 1.45 1.5 2.5 1.3.9 3 1.05v2.35q0 .15.05.25H20.3q-.35 0-.65.25-.25.3-.25.65v.05q0 .35.25.6.3.3.65.3h5.8q.35 0 .6-.3.3-.25.3-.6v-.05q0-.35-.3-.65-.25-.25-.6-.25h-1.95V27q1.5-.2 2.6-1 1.55-1.05 1.55-2.5.05-.25.05-.55m-1.1-5.15v3.45h-8.2V17.8h8.2z" id="a"/></defs><use xlink:href="#a"/></svg>