<svg xmlns="http://www.w3.org/2000/svg" xmlns:xlink="http://www.w3.org/1999/xlink" preserveAspectRatio="none" width="35" height="50" viewBox="0 0 35 50"><defs><path fill="#d19e45" d="M234 171.6q1.05 2.35 2.65 4.45l19.6 32.9.25.95 20.45-34.25q1.3-1.8 2.2-3.75 2.2-4.65 2.2-10.25 0-10.15-7.25-17.25-7.25-7.15-17.45-7.15-10.25 0-17.5 7.15-7.2 7.1-7.2 17.25 0 5.4 2.05 9.95m23 5.2q-6.1 0-10.45-4.3-4.25-4.3-4.25-10.4 0-6.15 4.25-10.45 4.35-4.3 10.45-4.3 6.15 0 10.4 4.3 4.35 4.3 4.35 10.45 0 6.1-4.35 10.4-4.25 4.3-10.4 4.3z" id="a"/><path fill="#d19e45" d="M24.45 13.9h-3.1v2.25h3.1V13.9z" id="b"/><path fill="#d19e45" d="M32.5 24.15q1.5-3.1 1.5-6.85 0-6.75-4.85-11.5Q24.3 1 17.5 1 10.65 1 5.8 5.8 1 10.55 1 17.3q0 3.6 1.35 6.65.7 1.6 1.75 3L17.2 48.9l13.85-22.25q.85-1.2 1.45-2.5m-5.9-8.75h-2.15v-1.5h-5.4v10.8h2v1.85H14.4V24.7h1.9V13.9h-5.15v1.5h-2.2v-4.25H26.6v4.25z" id="c"/></defs><use xlink:href="#a"/><use xlink:href="#b"/><use xlink:href="#c"/></svg>