<?xml version="1.0" encoding="utf-8"?>
<!-- Generator: Adobe Illustrator 18.0.0, SVG Export Plug-In . SVG Version: 6.00 Build 0)  -->
<!DOCTYPE svg PUBLIC "-//W3C//DTD SVG 1.1//EN" "http://www.w3.org/Graphics/SVG/1.1/DTD/svg11.dtd">
<svg version="1.1" id="Layer_1" xmlns="http://www.w3.org/2000/svg" xmlns:xlink="http://www.w3.org/1999/xlink" x="0px" y="0px"
	 viewBox="0 0 108 40" enable-background="new 0 0 108 40" xml:space="preserve">
<g>
	<polygon fill="#FFFFFF" points="37,17.6 37,25.3 40.6,25.3 42.5,23.4 42.5,19.6 40.4,17.6 	"/>
	<polygon fill="#FFFFFF" points="8.6,22.6 0.1,40 14.3,40 14.3,6.8 0,6.8 	"/>
	<polygon fill="#FFFFFF" points="41.8,12.6 41.8,9.1 39.9,7.2 37,7.2 37,14.6 40.1,14.6 	"/>
	<path fill="#FFFFFF" d="M17.6,0v33.1h72.3V0H17.6z M45.5,24.6l-3.7,3.6H34v-20l1.2-0.7V7.2h-3v-3h8.9l3.6,3.6v5.9L43,15.9l2.4,2.4
		V24.6z M58.5,28.2L57.6,22h-5.1l-0.9,6.2h-3l3-20.1l1.3-0.7V7.1h-2.5V4.3h7.6l3.6,23.9H58.5z M69.8,28.2h-3.1l2.6-8.4L65.1,7.7
		l1-0.6V6.9H63V4.2h4L70.8,16h0.1l1.8-6.3l1.9-5.5h3.1L69.8,28.2z"/>
	<polygon fill="#FFFFFF" points="54.8,7.1 53,19 57.2,19 55.4,7.1 	"/>
	<polygon fill="#FFFFFF" points="108,6.8 93.7,6.8 93.7,40 107.9,40 99.4,22.6 	"/>
</g>
</svg>
