<svg xmlns="http://www.w3.org/2000/svg" xmlns:xlink="http://www.w3.org/1999/xlink" preserveAspectRatio="none" width="110" height="140" viewBox="0 0 110 140"><defs><path fill="#c39c4d" d="M67.35 14.5Q56.7 2.5 41.5 2.5q-15.2 0-25.85 12Q5 26.65 5 43.8 5 61 15.65 72.95 26.3 85.1 41.5 85.1q15.2 0 25.85-12.15Q78 61 78 43.8q0-17.15-10.65-29.3M42.8 12.1q2.6 0 4.55 1.95 2 1.95 2 4.55 0 2.6-2 4.55-1.95 2-4.55 2-6.5 0-11.3 4.75v-.2q-4.55 4.55-4.55 11.3v1.5q0 2.6-1.95 4.6-1.95 1.95-4.6 1.95-2.6 0-4.55-1.95-1.95-2-1.95-4.6V41q0-11.95 8.5-20.45 8.65-8.45 20.4-8.45m40 28.7q.45 3.45.45 7.35 0 17.2-10.65 29.15Q65 86 55 88.6q1.95 3.25 4.55 6.3 6.75 7.6 15.85 9.15l-4.35 4.75h6.75v30h2.85v-30h6.05l-3.9-4.75q9.55-1.1 16.75-9.15 8.05-9.15 8.05-22.4 0-13.25-8.05-22.8-7.2-7.85-16.75-8.9z" id="a"/><path fill="#c39c4d" d="M50.85 91l-9.8-11.75L30.65 91h20.2z" id="b"/><path fill="#c39c4d" d="M42.8 91h-3.45v38.9h3.45V91z" id="c"/></defs><use xlink:href="#a"/><use xlink:href="#b"/><use xlink:href="#c"/></svg>