<svg xmlns="http://www.w3.org/2000/svg" xmlns:xlink="http://www.w3.org/1999/xlink" preserveAspectRatio="none" width="110" height="80" viewBox="0 0 110 80"><defs><path fill="#c39c4d" d="M12.35 3.75q-.75-.05-1.45.2-1.05.25-1.85.9-.7.35-1.1.85-1.3 1.25-2.15 3.4-8.45 18.35 6.85 21.55Q27.1 27.45 19 9.1q-1.4-2.9-3.35-4.25-1-.65-1.85-.9-.8-.25-1.45-.2z" id="a"/><path fill="#c39c4d" d="M13.9 32.2q-.3-3.05-.65-4.4-.2-.65-.35-.85-.15-.2-.25-.2t-.25.2q-.2.2-.35.85-.4 1.35-.7 4.4-4.15 41.25 1.3 41.25 5.4 0 1.25-41.25m86.05-4.4q-.2-.65-.35-.85-.15-.2-.25-.2t-.25.2q-.2.2-.35.85-.4 1.35-.7 4.4-4.15 41.25 1.3 41.25 5.4 0 1.25-41.25-.3-3.05-.65-4.4z" id="b"/><path fill="#c39c4d" d="M77.3 19.85q-9-9-21.7-9t-21.7 9q-9 9-9 21.7t9 21.7q9 9 21.7 9t21.7-9q9-9 9-21.7t-9-21.7m-21.45-4.4q10.85 0 18.45 7.65Q82 30.75 82 41.6t-7.7 18.5q-7.6 7.65-18.45 7.65T37.3 60.1q-7.6-7.65-7.6-18.5t7.6-18.5q7.7-7.65 18.55-7.65m51.75-10.8h-2.9v17.9h-2.2V4.65h-2.2V22.6h-2.35V4.65h-2.2v17.9h-2.4V4.65h-3.2v18.8q0 3.6 2.55 6.15 2.55 2.55 6.15 2.55h.05q3.6 0 6.15-2.55 2.55-2.55 2.55-6.15V4.65z" id="c"/><path fill="#c39c4d" d="M76.4 41.75q0-8.45-6-14.45-5.95-5.95-14.4-5.95T41.55 27.3q-5.95 6-5.95 14.45t5.95 14.4q6 6 14.45 6t14.4-6q6-5.95 6-14.4M69.7 28q5.7 5.7 5.7 13.75t-5.7 13.7q-5.65 5.7-13.7 5.7-8.05 0-13.75-5.7-5.65-5.65-5.65-13.7 0-8.05 5.65-13.75 5.7-5.65 13.75-5.65T69.7 28z" id="d"/></defs><use xlink:href="#a"/><use xlink:href="#b"/><use xlink:href="#c"/><use xlink:href="#d"/></svg>