<svg xmlns="http://www.w3.org/2000/svg" xmlns:xlink="http://www.w3.org/1999/xlink" preserveAspectRatio="none" width="62" height="62" viewBox="0 0 62 62"><defs><path fill="#c39c4d" d="M43.75 10.2q-.7 0-.7.25-.6-3.3-3.65-6.2-3-3.15-10.3-2.9-7.5.25-10.75 5.7-2.55 3.75-2.9 4.1-2.55-.95-4.65-.7-4.6.35-7.85 7.25-3.5 6.9 2.65 10.8 2.7 1.55 5.85 2.05v18.4q0 .25.1.35v10.05H48V49.3q.15-.1.15-.35v-19q6.4-.5 9.2-4.35 3.25-4.4-.15-10.55-2.75-5-9.3-5-2.8.15-4.15.15m0 1.45q1.35 0 4.15-.1 5.55 0 8 4.2 2.9 5.2.2 9-2.65 3.5-8.7 3.75-.35 0-.5.25-.2.2-.2.45v19.75h-8v-9.8h-3.15v9.8H31.4v-13.7h-3.15v13.7H25v-9.8h-2.9v9.8h-9.2V29.8q0-.25-.15-.45-.25-.25-.45-.25-3.3-.25-5.95-1.85-5-3.15-2.05-8.95 2.9-6.05 6.65-6.4 1.8-.25 4.1.7h.25q.95.25 4.25-4.7v-.15q3-4.7 9.55-4.95 6.55-.25 9.35 2.45Q41.1 7.9 41.6 10.9q.1.75 2.15.75z" id="a"/></defs><use xlink:href="#a"/></svg>