<svg xmlns="http://www.w3.org/2000/svg" xmlns:xlink="http://www.w3.org/1999/xlink" preserveAspectRatio="none" width="100" height="100" viewBox="0 0 100 100"><defs><path fill="#fff" d="M81.1 45v-.15H16.3V45q0 18.4 9.5 31.45T48.7 89.5q13.4 0 22.9-13.05Q81.1 63.4 81.1 45M36.25 79q-6.95-4.95-9.45-17.05-.75-3.8-1-7.85l-.1-3.3 6.85.15q-.45 11.2.6 17.25.45 2.6 3.1 10.8z" id="a"/><path fill="#fff" d="M45.35 11.55q-3 6.55-3.65 10.7-1 6.1 2.15 9.6 2.95 3.25 2 7.85-.25 1.2-.65 2.25 2.75-5.7 2.85-9.45.05-2.95-1.7-5.85-2.65-4.35-1-15.1M59.1.65Q55 6.7 54.8 15.9q-.2 7.6 1.95 13.1 1.45 3.75 1.05 9.15-.2 2.7-.7 4.65 3.2-5.4 3.95-10.3.85-5.5-1.45-9.7-2.2-4.1-2.15-10.15.05-4.8 1.65-12m30 69.75q2.05-5.3.6-10.15v.05q-1.5-5.15-5.9-6.85-4.45-1.8-9.1.9-4.35 2.55-6.4 7.85-2.1 5.25-.65 10.1 1.5 5.15 6 6.9 4.35 1.75 9-1v.05q4.35-2.6 6.45-7.85m-2.65-9.15q1.1 3.75-.5 7.9-1.65 4.1-5.05 6.15-3.1 1.85-6 .75-2.95-1.2-4-4.7-1.1-3.8.55-7.9 1.6-4.15 5-6.2l-.05.05q3.15-1.85 6.15-.7 2.85 1.15 3.9 4.65z" id="b"/><path fill="#fff" d="M28.75 90.95q0 1.5 5.75 2.55 5.75 1.05 13.9 1.05t13.9-1.05q5.75-1.05 5.75-2.55v-.2q3.7-.25 7.05-.55 10.9-1 10.9-2.45 0-1.45-10.9-2.45-10.9-1-26.3-1t-26.3 1q-10.9 1-10.9 2.45 0 1.45 10.9 2.45 3 .25 6.3.5-.05.1-.05.25z" id="c"/></defs><use xlink:href="#a"/><use xlink:href="#b"/><use xlink:href="#c"/></svg>