
<svg xmlns="http://www.w3.org/2000/svg" version="1.1" xmlns:xlink="http://www.w3.org/1999/xlink" preserveAspectRatio="none" x="0px" y="0px" width="60px" height="60px" viewBox="0 0 60 60">
<defs>
<g id="Layer5_0_FILL">
<path fill="#D19E45" stroke="none" d="
M 50.8 21.35
L 50.8 1.35 9 1.35 9 21.5 1.45 27.95 1.45 60.65 58.45 60.65 58.45 27.95 50.8 21.35
M 48.15 4.15
L 48.15 29.8 30.05 47.9 11.75 29.65 11.75 4.15 48.15 4.15
M 42.2 32.55
L 42.2 28.55 17.45 28.55 17.45 32.55 42.2 32.55
M 42.2 22.9
L 42.2 18.9 17.45 18.9 17.45 22.9 42.2 22.9
M 42.2 13.2
L 42.2 9.2 17.45 9.2 17.45 13.2 42.2 13.2 Z"/>
</g>
</defs>

<g transform="matrix( 1, 0, 0, 1, 0,0) ">
<use xlink:href="#Layer5_0_FILL"/>
</g>
</svg>
