<svg xmlns="http://www.w3.org/2000/svg" xmlns:xlink="http://www.w3.org/1999/xlink" preserveAspectRatio="none" width="265" height="100" viewBox="0 0 265 100"><defs><path fill="#fff" d="M36 18.05H1.1l20.9 39-20.7 43H36v-82M219.95 83V1h-176v82h176m-55.9-71.35l9.45 29.1h.15l4.3-15.6 4.65-13.5h7.6L170.95 70.9h-7.6l6.45-20.7-10.15-29.85 2.4-1.55v-.5h-7.65v-6.65h9.65m-40.5 7.25v-7.15h18.55l8.8 59.15h-7.3l-2.25-15.4H129l-2.3 15.4h-7.25l7.25-49.6 3.05-1.8v-.6h-6.2m-22.25-7.1l8.85 8.95V35.2l-4.35 5.2 5.95 5.85v15.8l-8.9 8.85h-18.9V21.55l3-1.85v-.55H79.7V11.8h21.6m-1.9 32.8h-8.2v19.05h8.7l4.55-4.6v-9.5L99.4 44.6m-1.1-25.45h-7.1v18.2h7.5l4.15-5V23.7l-4.55-4.55m37.55-.25h-1.45l-4.35 29.4h10.25l-4.45-29.4M243.1 57.05l20.9-39h-34.9v82h34.7l-20.7-43z" id="a"/></defs><use xlink:href="#a"/></svg>