<svg xmlns="http://www.w3.org/2000/svg" xmlns:xlink="http://www.w3.org/1999/xlink" preserveAspectRatio="none" width="100" height="100" viewBox="0 0 100 100"><defs><path fill="#fff" d="M83.8 84q14-14 14-33.8 0-19.8-14-33.8-14-14-33.8-14-19.8 0-33.8 14-14 14-14 33.8 0 19.8 14 33.8 14 14 33.8 14 19.8 0 33.8-14m13-33.8q0 19.4-13.7 33.1Q69.4 97 50 97q-19.4 0-33.1-13.7Q3.2 69.6 3.2 50.2q0-19.4 13.7-33.1Q30.6 3.4 50 3.4q19.4 0 33.1 13.7 13.7 13.7 13.7 33.1m-25.65-1.25L42.55 26.7q-.55-.4-1.2-.35-.65.05-1.1.55-.45.5-.45 1.15v44.8q0 .65.45 1.15.45.5 1.15.55.65.05 1.15-.35l28.6-22.55q.4-.35.6-.85.15-.5 0-1-.2-.5-.6-.85m-3.8 1.4l-24.15 19v-37.8l24.15 18.8z" id="a"/></defs><use xlink:href="#a"/></svg>