<svg xmlns="http://www.w3.org/2000/svg" xmlns:xlink="http://www.w3.org/1999/xlink" preserveAspectRatio="none" width="100" height="100" viewBox="0 0 100 100"><defs><path fill="#c39c4d" d="M83.9 79.7h6.9V43.45H80.75l-1.65.9v.45h1.05v23.45H40.8V80.3h33.15l5.25 7.45 4.7-8.05z" id="a"/><path fill="#c39c4d" d="M81.35 69.7V16.25h-71.3V69.7h11.7v-2.5h-8.6V18.35H78.7V67.2H33.3v2.5h48.05z" id="b"/><path fill="#c39c4d" d="M43.8 47.2H20.2v2.4h23.6v-2.4m4.3 8.5h23.6v-2.4H48.1v2.4m-27.9-2.4v2.4h23.6v-2.4H20.2M27.6 76l-5.8-8.7-2.3 1.5 7.2 10.8.95 1.2 8.05-12.05-2.3-1.5L27.6 76m-3.75-42.3q1.6 0 2.7-1.15 1.15-1.1 1.15-2.7t-1.15-2.75q-1.1-1.1-2.7-1.1t-2.75 1.1Q20 28.25 20 29.85t1.1 2.7q1.15 1.15 2.75 1.15M71.7 47.2H48.1v2.4h23.6v-2.4m.3-15.65V28.9H32.3v2.65H72m-28.2 12.1v-2.4H20.2v2.4h23.6m4.3-2.4v2.4h23.6v-2.4H48.1M79.45 17.7v-1.05h-68.6v2.1H78.4v51.6h1.45V17.7h-.4z" id="c"/></defs><use xlink:href="#a"/><use xlink:href="#b"/><use xlink:href="#c"/></svg>