<svg xmlns="http://www.w3.org/2000/svg" xmlns:xlink="http://www.w3.org/1999/xlink" preserveAspectRatio="none" width="103" height="153" viewBox="0 0 103 153"><defs><path fill="#fff" d="M95.55 58.45q-.85.85-.85 2.05v22q-.004 17.947-12.75 30.6-12.653 12.746-30.6 12.75-17.95 0-30.7-12.75Q7.998 100.448 8 82.5v-22q0-1.2-.85-2.05-.85-.85-2.05-.85-1.2 0-2.05.85-.85.85-.85 2.05v22q.002 20.352 14.35 34.7 14.45 14.452 34.8 14.45 20.353.004 34.7-14.45 14.454-14.347 14.45-34.7v-22q0-1.2-.85-2.05-.85-.85-2.05-.85-1.2 0-2.05.85M53.2 1.3h-3.7q-11.4 0-19.5 8.8t-8.1 21.2v13.85h16.65v4.6H21.9v7.2h16.65v4.6H21.9v6.65h16.65v4.6H21.9v9.5q0 12.4 8.1 21.2 8.1 8.8 19.5 8.8h3.7q11.4 0 19.5-8.8t8.1-21.2v-9.5H63.15v-4.6H80.8v-6.65H63.15v-4.6H80.8v-7.2H63.15v-4.6H80.8V31.3q0-12.4-8.1-21.2-8.1-8.8-19.5-8.8z" id="a"/><path fill="#fff" d="M49 126.7v19H23v5h55v-5H55v-19h-6z" id="b"/></defs><use xlink:href="#a"/><use xlink:href="#b"/></svg>