<svg xmlns="http://www.w3.org/2000/svg" viewBox="0 0 100 100" enable-background="new 0 0 100 100"><path fill="#6E8D7D" stroke="#fff" stroke-width="2" d="M3.5 3.5h93.8V97H3.5z"/><path fill="#6E8D7D" stroke="#B79755" stroke-width="2" d="M7.8 7.8H93v84.9H7.8z"/><path fill="#fff" d="M35.7 45.8h30.4v4.6H35.7zM35.7 49.1H39v4.8h-3.3zM62.7 49.1H66v4.8h-3.3zM48 48.4h5.6V75H48zM44.1 75h13.4v2.3H44.1z"/><path fill="#BA9954" d="M35.2 64.7H21.6c-.9 0-1.6-.7-1.6-1.6 0-.9.7-1.6 1.6-1.6h13.6c.9 0 1.6.7 1.6 1.6-.1.9-.8 1.6-1.6 1.6zM19.9 63.5L14.7 44c-.2-.8.3-1.7 1.1-1.9.8-.2 1.7.3 1.9 1.1l5.2 19.5c.2.8-.3 1.7-1.1 1.9-.8.2-1.7-.3-1.9-1.1zM34.6 63.2h2.1v13.9h-2.1zM19.8 63.2h2.1v13.9h-2.1zM20.9 69.6h14.8V71H20.9zM66.4 64.7h13.7c.9 0 1.6-.7 1.6-1.6 0-.9-.7-1.6-1.6-1.6H66.4c-.9 0-1.6.7-1.6 1.6.1.9.8 1.6 1.6 1.6zM81.9 63.5L87.1 44c.2-.8-.3-1.7-1.1-1.9-.8-.2-1.7.3-1.9 1.1l-5.2 19.5c-.2.8.3 1.7 1.1 1.9.8.2 1.7-.3 1.9-1.1zM64.9 63.2H67v13.9h-2.1zM79.6 63.2h2.1v13.9h-2.1zM65.9 69.6h14.8V71H65.9zM53.2 39.5s2.9 1.9 4.1-2.8-2-.2-2-.2.6-1.4-.1.4c-.7 1.9-2.7 2-2.7 2l.7.6z"/><g fill="#fff"><path d="M54.6 37.6H54v-.5l-.1.3-.3 1.2h1v-1zM60.5 33.3v.7c-.5.2-1.1.3-1.7.2-.2.9.8 1.6 1.9 1.4.1 0 .1 0 .2-.1.7 1.4 2.1 2 3.9 2 2.4 0 4.9-1.5 4.9-2.8 0-.4-.3-.6-.8-.6-.5.9-1.3 1.4-2.5 1.4s-2.1-.5-2.4-1.8c5.3-2.5 6.5-4.2 6.5-6.2 0-1.1-.6-2.3-3.1-2.3-4.6.1-6.9 5.1-6.9 8.1zm7-6.1c.5 0 .8.4.8.9 0 1.5-1.8 3.2-4.5 4.7.1-1.7 1-5.6 3.7-5.6zM48 35.2c0 1.9 1.3 2.4 2.5 2.4 1.1 0 2.6-.6 3.7-1.5l-.2.6h3.2l2.4-9.8H61c.8 0 1.3-.6 1.1-1.4H60l.2-.7c.4-1.8 1.1-3.4 2.4-3.4.7 0 1 .2 1 .7 0 .3-.1 1-.4 1.5.4.2.7.3 1.1.3 1 0 1.9-.6 1.9-1.9 0-1.5-1.1-2.3-3.4-2.3-2.6 0-4.9 1.9-5.7 4.9l-.2.9h-.5c-.8 0-1.3.6-1.1 1.4h1.4l-1.9 7.5c-.7.5-1.7.9-2.5.9-.7 0-1.1-.4-.8-1.8l1.9-7.9c-.3-.2-.8-.3-1.3-.3-.7 0-1.4.2-1.9.7-.7-.5-1.6-.8-2.8-.8-3.8 0-6.9 4.1-6.9 8.3v.4c-1.3.9-3 1.5-4.4 1.5-1.5 0-2.6-.7-2.6-2.6 0-3.4 1.8-6 3.3-6 .7 0 1 .2 1 .7 0 .3-.1 1-.4 1.5.3.2.7.3 1.1.3 1 0 1.9-.6 1.9-1.9 0-1.5-1.1-2.3-3.3-2.3-4.1 0-7 4.4-7 8 0 2.9 2.1 4.2 4.6 4.2 2 0 4.2-.8 6-2.2.4 1.1 1.3 2.2 3.1 2.2 1.6.3 3-.7 4.2-2.1zm-4.2-1.8c0-2.6 1.2-6.3 4.5-6.3.4 0 .8 0 1.3.2L48 33.6c-.7.9-1.9 1.5-2.8 1.5-.8 0-1.4-.5-1.4-1.7z"/></g><path fill="#fff" d="M57.4 36.2c-.1 0-.7 4.3-2.7 4.5-2.2.3-2.8-1.7-2.8-1.7s1.7.4 2.2-2.8c.5-3.2 1.6.4 1.6.4l1.7-.4z"/></svg>