<?xml version="1.0" encoding="utf-8"?>
<!-- Generator: Adobe Illustrator 18.0.0, SVG Export Plug-In . SVG Version: 6.00 Build 0)  -->
<!DOCTYPE svg PUBLIC "-//W3C//DTD SVG 1.1//EN" "http://www.w3.org/Graphics/SVG/1.1/DTD/svg11.dtd">
<svg version="1.1" id="Layer_1" xmlns="http://www.w3.org/2000/svg" xmlns:xlink="http://www.w3.org/1999/xlink" x="0px" y="0px"
	 viewBox="0 0 100 100" enable-background="new 0 0 100 100" xml:space="preserve">
<rect x="3.5" y="3.5" fill="#6E8D7D" stroke="#FFFFFF" stroke-width="2" width="93.8" height="93.5"/>
<rect x="7.8" y="7.8" fill="#6E8D7D" stroke="#B79755" stroke-width="2" width="85.2" height="84.9"/>
<g>
	<g>
		<rect x="35.7" y="45.8" fill="#FFFFFF" width="30.4" height="4.6"/>
	</g>
	<g>
		<rect x="35.7" y="49.1" fill="#FFFFFF" width="3.3" height="4.8"/>
	</g>
	<g>
		<rect x="62.7" y="49.1" fill="#FFFFFF" width="3.3" height="4.8"/>
	</g>
	<g>
		<rect x="48" y="48.4" fill="#FFFFFF" width="5.6" height="26.6"/>
	</g>
	<g>
		<rect x="44.1" y="75" fill="#FFFFFF" width="13.4" height="2.3"/>
	</g>
	<g>
		<path fill="#BA9954" d="M35.2,64.7H21.6c-0.9,0-1.6-0.7-1.6-1.6l0,0c0-0.9,0.7-1.6,1.6-1.6h13.6c0.9,0,1.6,0.7,1.6,1.6l0,0
			C36.7,64,36,64.7,35.2,64.7z"/>
	</g>
	<g>
		<path fill="#BA9954" d="M19.9,63.5L14.7,44c-0.2-0.8,0.3-1.7,1.1-1.9h0c0.8-0.2,1.7,0.3,1.9,1.1l5.2,19.5c0.2,0.8-0.3,1.7-1.1,1.9
			h0C21,64.8,20.1,64.3,19.9,63.5z"/>
	</g>
	<g>
		<rect x="34.6" y="63.2" fill="#BA9954" width="2.1" height="13.9"/>
	</g>
	<g>
		<rect x="19.8" y="63.2" fill="#BA9954" width="2.1" height="13.9"/>
	</g>
	<g>
		<rect x="20.9" y="69.6" fill="#BA9954" width="14.8" height="1.4"/>
	</g>
	<g>
		<path fill="#BA9954" d="M66.4,64.7h13.7c0.9,0,1.6-0.7,1.6-1.6l0,0c0-0.9-0.7-1.6-1.6-1.6H66.4c-0.9,0-1.6,0.7-1.6,1.6l0,0
			C64.9,64,65.6,64.7,66.4,64.7z"/>
	</g>
	<g>
		<path fill="#BA9954" d="M81.9,63.5L87.1,44c0.2-0.8-0.3-1.7-1.1-1.9l0,0c-0.8-0.2-1.7,0.3-1.9,1.1l-5.2,19.5
			c-0.2,0.8,0.3,1.7,1.1,1.9l0,0C80.8,64.8,81.7,64.3,81.9,63.5z"/>
	</g>
	<g>
		<rect x="64.9" y="63.2" fill="#BA9954" width="2.1" height="13.9"/>
	</g>
	<g>
		<rect x="79.6" y="63.2" fill="#BA9954" width="2.1" height="13.9"/>
	</g>
	<g>
		<rect x="65.9" y="69.6" fill="#BA9954" width="14.8" height="1.4"/>
	</g>
	<g>
		<path fill="#BA9954" d="M53.2,39.5c0,0,2.9,1.9,4.1-2.8s-2-0.2-2-0.2s0.6-1.4-0.1,0.4c-0.7,1.9-2.7,2-2.7,2L53.2,39.5z"/>
	</g>
	<g>
		<g>
			<path fill="#FFFFFF" d="M54.6,37.6H54v-0.5l-0.1,0.3c-0.1,0.4-0.2,0.8-0.3,1.2h1V37.6z"/>
			<path fill="#FFFFFF" d="M60.5,33.3c0,0.2,0,0.5,0,0.7c-0.5,0.2-1.1,0.3-1.7,0.2c-0.2,0.9,0.8,1.6,1.9,1.4c0.1,0,0.1,0,0.2-0.1
				c0.7,1.4,2.1,2,3.9,2c2.4,0,4.9-1.5,4.9-2.8c0-0.4-0.3-0.6-0.8-0.6c-0.5,0.9-1.3,1.4-2.5,1.4c-1.2,0-2.1-0.5-2.4-1.8
				c5.3-2.5,6.5-4.2,6.5-6.2c0-1.1-0.6-2.3-3.1-2.3C62.8,25.3,60.5,30.3,60.5,33.3z M67.5,27.2c0.5,0,0.8,0.4,0.8,0.9
				c0,1.5-1.8,3.2-4.5,4.7C63.9,31.1,64.8,27.2,67.5,27.2z"/>
			<path fill="#FFFFFF" d="M48,35.2c0,1.9,1.3,2.4,2.5,2.4c1.1,0,2.6-0.6,3.7-1.5l-0.2,0.6h1.5h1.7l2.4-9.8H61
				c0.8,0,1.3-0.6,1.1-1.4H60l0.2-0.7c0.4-1.8,1.1-3.4,2.4-3.4c0.7,0,1,0.2,1,0.7c0,0.3-0.1,1-0.4,1.5c0.4,0.2,0.7,0.3,1.1,0.3
				c1,0,1.9-0.6,1.9-1.9c0-1.5-1.1-2.3-3.4-2.3c-2.6,0-4.9,1.9-5.7,4.9l-0.2,0.9h-0.5c-0.8,0-1.3,0.6-1.1,1.4h1.4l-1.9,7.5
				c-0.7,0.5-1.7,0.9-2.5,0.9c-0.7,0-1.1-0.4-0.8-1.8l1.9-7.9c-0.3-0.2-0.8-0.3-1.3-0.3c-0.7,0-1.4,0.2-1.9,0.7
				c-0.7-0.5-1.6-0.8-2.8-0.8c-3.8,0-6.9,4.1-6.9,8.3c0,0.1,0,0.3,0,0.4c-1.3,0.9-3,1.5-4.4,1.5c-1.5,0-2.6-0.7-2.6-2.6
				c0-3.4,1.8-6,3.3-6c0.7,0,1,0.2,1,0.7c0,0.3-0.1,1-0.4,1.5c0.3,0.2,0.7,0.3,1.1,0.3c1,0,1.9-0.6,1.9-1.9c0-1.5-1.1-2.3-3.3-2.3
				c-4.1,0-7,4.4-7,8c0,2.9,2.1,4.2,4.6,4.2c2,0,4.2-0.8,6-2.2c0.4,1.1,1.3,2.2,3.1,2.2C45.4,37.6,46.8,36.6,48,35.2z M43.8,33.4
				c0-2.6,1.2-6.3,4.5-6.3c0.4,0,0.8,0,1.3,0.2L48,33.6c-0.7,0.9-1.9,1.5-2.8,1.5C44.4,35.1,43.8,34.6,43.8,33.4z"/>
		</g>
		<g>
			<path fill="#FFFFFF" d="M57.4,36.2c-0.1,0-0.7,4.3-2.7,4.5C52.5,41,51.9,39,51.9,39s1.7,0.4,2.2-2.8c0.5-3.2,1.6,0.4,1.6,0.4
				L57.4,36.2z"/>
		</g>
	</g>
</g>
</svg>
