<svg xmlns="http://www.w3.org/2000/svg" viewBox="0 0 100 100" enable-background="new 0 0 100 100"><path fill="#000002" d="M33.9 45.4h34.6v5.3H33.9zM33.9 49.2h3.8v5.5h-3.8zM64.8 49.2h3.8v5.5h-3.8zM48 48.4h6.4v30.4H48zM43.6 78.8h15.3v2.6H43.6z"/><path fill="#BA9954" d="M33.4 67H17.8c-1 0-1.8-.8-1.8-1.8s.8-1.8 1.8-1.8h15.5c1 0 1.8.8 1.8 1.8s-.8 1.8-1.7 1.8zM16 65.6l-5.9-22.2c-.2-.9.3-1.9 1.3-2.2.9-.2 1.9.3 2.2 1.3l5.9 22.2c.2.9-.3 1.9-1.3 2.2-1 .2-2-.4-2.2-1.3zM32.7 65.2h2.4v15.9h-2.4zM15.8 65.2h2.4v15.9h-2.4zM17.1 72.6h16.8v1.6H17.1zM69 67h15.6c1 0 1.8-.8 1.8-1.8s-.8-1.8-1.8-1.8H69c-1 0-1.8.8-1.8 1.8S68 67 69 67zM86.6 65.6l5.9-22.2c.2-.9-.3-1.9-1.3-2.2-.9-.2-1.9.3-2.2 1.3l-5.9 22.2c-.2.9.3 1.9 1.3 2.2 1 .2 1.9-.4 2.2-1.3zM67.2 65.2h2.4v15.9h-2.4zM84 65.2h2.4v15.9H84zM68.4 72.6h16.8v1.6H68.4z"/><path fill="#000002" d="M53.9 38.3s3.4 2.1 4.7-3.2-2.3-.2-2.3-.2.6-1.6-.1.5-3.1 2.3-3.1 2.3l.8.6z"/><g fill="#000002"><path d="M55.5 36.1h-.7v-.6l-.1.3c-.1.5-.2 1-.4 1.4h1.2v-1.1zM62.2 31.2v.8c-.6.2-1.2.4-1.9.3-.2 1.1.9 1.8 2.1 1.6.1 0 .2 0 .2-.1.8 1.7 2.4 2.3 4.4 2.3 2.7 0 5.6-1.7 5.6-3.2 0-.5-.3-.7-.9-.7-.5 1-1.5 1.5-2.9 1.5-1.3 0-2.4-.6-2.7-2 6-2.9 7.4-4.7 7.4-7 0-1.2-.7-2.6-3.5-2.6-5.1 0-7.8 5.6-7.8 9.1zm8-7c.5 0 .9.4.9 1.1 0 1.8-2.1 3.7-5.1 5.3.1-1.9 1.1-6.4 4.2-6.4zM47.9 33.3c0 2.1 1.4 2.7 2.9 2.7 1.3 0 2.9-.7 4.3-1.7l-.2.7H58.5l2.8-11.2h1.5c1 0 1.5-.7 1.3-1.6h-2.4l.2-.8c.5-2 1.3-3.8 2.7-3.8.8 0 1.2.3 1.2.8 0 .4-.2 1.1-.5 1.8.4.2.8.4 1.2.4 1.2.1 2.2-.7 2.2-2.2 0-1.8-1.3-2.6-3.9-2.6-3 0-5.6 2.1-6.5 5.6l-.2 1h-.6c-1 0-1.5.7-1.3 1.6h1.6l-2.1 8.6c-.8.6-1.9 1-2.9 1-.8 0-1.3-.5-.9-2l2.2-9c-.4-.2-.9-.4-1.5-.4-.8 0-1.6.2-2.1.8-.8-.6-1.8-.9-3.2-.9-4.3 0-7.8 4.7-7.8 9.4v.5c-1.5 1-3.4 1.7-5 1.7-1.7 0-3-.8-3-2.9 0-3.9 2-6.8 3.8-6.8.8 0 1.2.3 1.2.8 0 .4-.2 1.1-.5 1.8.3.3.8.4 1.2.4 1.2 0 2.2-.7 2.2-2.2 0-1.8-1.2-2.6-3.8-2.6-4.7 0-7.9 5-7.9 9.1 0 3.3 2.4 4.8 5.3 4.8 2.2 0 4.8-.9 6.9-2.5.5 1.3 1.5 2.5 3.6 2.5 1.5 0 3.1-1.2 4.4-2.8zm-4.7-2c0-2.9 1.3-7.2 5.1-7.2.5 0 .9.1 1.5.2L48 31.6c-.8 1-2.1 1.7-3.1 1.7s-1.7-.6-1.7-2z"/></g><path fill="#000002" d="M58.7 34.5c-.1 0-.8 4.9-3.1 5.2-2.5.3-3.1-1.9-3.1-1.9s1.9.4 2.5-3.2c.6-3.6 1.8.4 1.8.4l1.9-.5z"/></svg>