
<svg xmlns="http://www.w3.org/2000/svg" version="1.1" xmlns:xlink="http://www.w3.org/1999/xlink" preserveAspectRatio="none" x="0px" y="0px" width="100px" height="80px" viewBox="0 0 100 80">
<defs>
<g id="Layer4_0_FILL">
<path fill="#c39c4d" stroke="none" d="
M 70.75 41.55
Q 72.05 39.75 72.95 37.8 75.15 33.15 75.15 27.55 75.15 17.4 67.9 10.3 60.65 3.15 50.45 3.15 40.2 3.15 32.95 10.3 25.75 17.4 25.75 27.55 25.75 32.95 27.8 37.5 28.85 39.85 30.45 41.95
L 50.05 74.85 50.3 75.8 70.75 41.55
M 65.55 28
Q 65.55 34.1 61.2 38.4 56.95 42.7 50.8 42.7 44.7 42.7 40.35 38.4 36.1 34.1 36.1 28 36.1 21.85 40.35 17.55 44.7 13.25 50.8 13.25 56.95 13.25 61.2 17.55 65.55 21.85 65.55 28
M 42.5 19.4
Q 42.45 19.45 42.4 19.5 39.05 22.9 39.05 27.8 39.05 29.45 39.4 30.9 40.2 33.9 42.5 36.2 45.95 39.65 50.9 39.7 55.45 39.65 58.8 36.75
L 58.8 36.7
Q 59.05 36.45 59.3 36.2 61.6 33.9 62.4 30.9 62.75 29.45 62.8 27.8 62.75 24.3 61.05 21.55 60.35 20.45 59.4 19.5 59.35 19.45 59.3 19.4 55.85 15.95 50.9 15.95 45.95 15.95 42.5 19.4
M 43.2 20.3
Q 43.25 20.25 43.3 20.2 46.45 17.05 50.9 17.1 55.35 17.05 58.5 20.2 58.55 20.25 58.6 20.3 59.45 21.15 60.05 22.15
L 60.1 22.15
Q 61.65 24.6 61.65 27.8 61.65 29.25 61.3 30.6 60.6 33.3 58.5 35.4 58.25 35.65 58.05 35.9
L 58 35.9
Q 55 38.55 50.9 38.55 46.45 38.55 43.3 35.4 41.2 33.3 40.5 30.6 40.15 29.25 40.2 27.8 40.15 23.4 43.2 20.3 Z"/>
</g>

<g id="Layer3_0_FILL">
<path fill="#c39c4d" stroke="none" d="
M 5.1 40.45
Q 5.1 44.3 6.55 47.5 7.3 49.15 8.4 50.65
L 22.25 73.9 22.45 74.55 34.1 55.1 30.05 48.3
Q 27.05 51.15 22.8 51.15 18.5 51.15 15.4 48.15 12.4 45.1 12.4 40.8 12.4 36.45 15.4 33.4 18.1 30.75 21.7 30.4 21.55 29 21.55 27.55 21.55 26.1 21.7 24.75 21.8 24 21.9 23.25 15.05 23.5 10.2 28.3 5.1 33.3 5.1 40.45
M 17.45 35.6
Q 17.65 35.5 17.75 35.3 19.6 33.5 22.15 33.3 22.4 33.25 22.55 33.1 22.7 32.9 22.7 32.65 22.65 32.4 22.5 32.25 22.3 32.1 22.05 32.15 19 32.4 16.8 34.6 16.75 34.6 16.75 34.65 14.35 37.1 14.35 40.65 14.35 41.85 14.6 42.9 15.15 45.05 16.8 46.7 19.3 49.2 22.85 49.25 26.15 49.2 28.55 47.1
L 28.55 47.05
Q 28.75 46.85 28.9 46.7 29 46.6 29.1 46.5 29.25 46.35 29.3 46.1 29.25 45.85 29.1 45.7 28.95 45.55 28.7 45.55 28.45 45.55 28.3 45.7 28.2 45.8 28.1 45.9 27.95 46.05 27.8 46.25
L 27.75 46.25
Q 25.7 48.1 22.85 48.1 19.8 48.1 17.6 45.9 16.15 44.45 15.7 42.6 15.45 41.65 15.5 40.65 15.45 37.7 17.45 35.6
M 88.4 40.8
Q 88.4 45.1 85.4 48.15 82.3 51.15 78 51.15 73.75 51.15 70.75 48.3
L 66.7 55.1 78.35 74.55 78.55 73.9 92.4 50.65
Q 93.5 49.15 94.25 47.5 95.7 44.3 95.7 40.45 95.7 33.3 90.6 28.3 85.75 23.5 78.9 23.25 79 24 79.1 24.75 79.25 26.1 79.25 27.55 79.25 29 79.1 30.4 82.7 30.75 85.4 33.4 88.4 36.45 88.4 40.8
M 83.05 35.3
Q 83.15 35.5 83.4 35.6 85.35 37.7 85.35 40.65 85.35 41.65 85.1 42.6 84.65 44.45 83.2 45.9 81 48.1 77.95 48.1 75.1 48.1 73.05 46.25 72.85 46.05 72.7 45.9 72.6 45.8 72.5 45.7 72.35 45.55 72.1 45.55 71.85 45.55 71.7 45.7 71.55 45.85 71.55 46.1 71.55 46.35 71.7 46.5 71.8 46.6 71.9 46.7 72.05 46.85 72.25 47.05
L 72.3 47.1
Q 74.65 49.2 77.95 49.25 81.5 49.2 84 46.7 85.65 45.05 86.2 42.9 86.45 41.85 86.5 40.65 86.45 37.1 84.05 34.65 84.05 34.6 84 34.6 81.8 32.4 78.75 32.15 78.5 32.1 78.35 32.25 78.15 32.4 78.15 32.65 78.1 32.9 78.25 33.1 78.4 33.25 78.65 33.3 81.2 33.5 83.05 35.3 Z"/>
</g>
</defs>

<g transform="matrix( 1, 0, 0, 1, 0,0) ">
<use xlink:href="#Layer4_0_FILL"/>
</g>

<g transform="matrix( 1, 0, 0, 1, 0,0) ">
<use xlink:href="#Layer3_0_FILL"/>
</g>
</svg>
