
<svg xmlns="http://www.w3.org/2000/svg" version="1.1" xmlns:xlink="http://www.w3.org/1999/xlink" preserveAspectRatio="none" x="0px" y="0px" width="105px" height="130px" viewBox="0 0 105 130">
<defs>
<g id="Layer1_0_FILL">
<path fill="#c39c4d" stroke="none" d="
M 21.55 31.45
L 21.55 37.4 17.55 37.4 17.55 31.45 15.75 31.45
Q 13.75 31.45 13.75 33.45
L 13.75 127.3
Q 13.75 129.3 15.75 129.3
L 23.5 129.3
Q 25.5 129.3 25.5 127.3
L 25.5 33.45
Q 25.5 31.45 23.5 31.45
L 21.55 31.45
M 60.55 2.1
Q 54.2 2.1 49.7 13.65 45.25 25.2 45.25 41.55 45.25 56.45 48.95 67.4
L 48.95 126.6
Q 48.95 128.6 50.95 128.6
L 58.7 128.6
Q 60.7 128.6 60.7 126.6
L 60.7 2.1
Q 60.65 2.1 60.55 2.1
M 93.25 32.75
Q 93.25 30.75 91.25 30.75
L 83.5 30.75
Q 81.5 30.75 81.5 32.75
L 81.5 126.6
Q 81.5 128.6 83.5 128.6
L 91.25 128.6
Q 93.25 128.6 93.25 126.6
L 93.25 32.75 Z"/>
</g>

<g id="Layer0_0_FILL">
<path fill="#c39c4d" stroke="none" d="
M 27 1.75
L 21.55 1.75 21.55 27.15 17.55 27.15 17.55 1.75 11.7 1.75 11.7 27.35 8.6 27.35 8.6 1.75 4.4 1.75
Q 3 7.95 3 15.25 3 29.1 7.95 38.85 12.9 48.6 19.9 48.6 26.9 48.6 31.85 38.85 36.8 29.1 36.8 15.25 36.8 7.95 35.45 1.75
L 30.35 1.75 30.35 27.15 27 27.15 27 1.75
M 99.6 8.3
Q 94.65 2 87.65 2 80.65 2 75.7 8.3 70.75 14.6 70.75 23.55 70.75 32.5 75.7 38.8 80.65 45.1 87.65 45.1 94.65 45.1 99.6 38.8 104.55 32.5 104.55 23.55 104.55 14.6 99.6 8.3 Z"/>
</g>
</defs>

<g transform="matrix( 1, 0, 0, 1, 0,0) ">
<use xlink:href="#Layer1_0_FILL"/>
</g>

<g transform="matrix( 1, 0, 0, 1, 0,0) ">
<use xlink:href="#Layer0_0_FILL"/>
</g>
</svg>
