
<svg xmlns="http://www.w3.org/2000/svg" version="1.1" xmlns:xlink="http://www.w3.org/1999/xlink" preserveAspectRatio="none" x="0px" y="0px" width="110px" height="140px" viewBox="0 0 110 140">
<defs>
<g id="Layer2_0_FILL">
<path fill="#c39c4d" stroke="none" d="
M 67.35 14.5
Q 56.7 2.5 41.5 2.5 26.3 2.5 15.65 14.5 5 26.65 5 43.8 5 61 15.65 72.95 26.3 85.1 41.5 85.1 56.7 85.1 67.35 72.95 78 61 78 43.8 78 26.65 67.35 14.5
M 42.8 12.1
Q 45.4 12.1 47.35 14.05 49.35 16 49.35 18.6 49.35 21.2 47.35 23.15 45.4 25.15 42.8 25.15 36.3 25.15 31.5 29.9
L 31.5 29.7
Q 26.95 34.25 26.95 41 26.95 41.65 26.95 42.5 26.95 45.1 25 47.1 23.05 49.05 20.4 49.05 17.8 49.05 15.85 47.1 13.9 45.1 13.9 42.5 13.9 41.65 13.9 41 13.9 29.05 22.4 20.55 31.05 12.1 42.8 12.1
M 82.8 40.8
Q 83.25 44.25 83.25 48.15 83.25 65.35 72.6 77.3 65 86 55 88.6 56.95 91.85 59.55 94.9 66.3 102.5 75.4 104.05
L 71.05 108.8 77.8 108.8 77.8 138.8 80.65 138.8 80.65 108.8 86.7 108.8 82.8 104.05
Q 92.35 102.95 99.55 94.9 107.6 85.75 107.6 72.5 107.6 59.25 99.55 49.7 92.35 41.85 82.8 40.8 Z"/>
</g>

<g id="Layer1_0_FILL">
<path fill="#c39c4d" stroke="none" d="
M 50.85 91
L 41.05 79.25 30.65 91 50.85 91 Z"/>
</g>

<g id="Layer0_0_FILL">
<path fill="#c39c4d" stroke="none" d="
M 42.8 91
L 39.35 91 39.35 129.9 42.8 129.9 42.8 91 Z"/>
</g>
</defs>

<g transform="matrix( 1, 0, 0, 1, 0,0) ">
<use xlink:href="#Layer2_0_FILL"/>
</g>

<g transform="matrix( 1, 0, 0, 1, 0,0) ">
<use xlink:href="#Layer1_0_FILL"/>
</g>

<g transform="matrix( 1, 0, 0, 1, 0,0) ">
<use xlink:href="#Layer0_0_FILL"/>
</g>
</svg>
