
<svg xmlns="http://www.w3.org/2000/svg" version="1.1" xmlns:xlink="http://www.w3.org/1999/xlink" preserveAspectRatio="none" x="0px" y="0px" width="100px" height="100px" viewBox="0 0 100 100">
<defs>
<g id="Layer2_0_FILL">
<path fill="#FFFFFF" stroke="none" d="
M 81.1 45
L 81.1 44.85 16.3 44.85 16.3 45
Q 16.3 63.4 25.8 76.45 35.3 89.5 48.7 89.5 62.1 89.5 71.6 76.45 81.1 63.4 81.1 45
M 36.25 79
Q 29.3 74.05 26.8 61.95 26.05 58.15 25.8 54.1
L 25.7 50.8 32.55 50.95
Q 32.1 62.15 33.15 68.2 33.6 70.8 36.25 79 Z"/>
</g>

<g id="Layer1_0_FILL">
<path fill="#FFFFFF" stroke="none" d="
M 45.35 11.55
Q 42.35 18.1 41.7 22.25 40.7 28.35 43.85 31.85 46.8 35.1 45.85 39.7 45.6 40.9 45.2 41.95 47.95 36.25 48.05 32.5 48.1 29.55 46.35 26.65 43.7 22.3 45.35 11.55
M 59.1 0.65
Q 55 6.7 54.8 15.9 54.6 23.5 56.75 29 58.2 32.75 57.8 38.15 57.6 40.85 57.1 42.8 60.3 37.4 61.05 32.5 61.9 27 59.6 22.8 57.4 18.7 57.45 12.65 57.5 7.85 59.1 0.65
M 89.1 70.4
Q 91.15 65.1 89.7 60.25
L 89.7 60.3
Q 88.2 55.15 83.8 53.45 79.35 51.65 74.7 54.35 70.35 56.9 68.3 62.2 66.2 67.45 67.65 72.3 69.15 77.45 73.65 79.2 78 80.95 82.65 78.2
L 82.65 78.25
Q 87 75.65 89.1 70.4
M 86.45 61.25
Q 87.55 65 85.95 69.15 84.3 73.25 80.9 75.3 77.8 77.15 74.9 76.05 71.95 74.85 70.9 71.35 69.8 67.55 71.45 63.45 73.05 59.3 76.45 57.25
L 76.4 57.3
Q 79.55 55.45 82.55 56.6 85.4 57.75 86.45 61.25 Z"/>
</g>

<g id="Layer0_0_FILL">
<path fill="#FFFFFF" stroke="none" d="
M 28.75 90.95
Q 28.75 92.45 34.5 93.5 40.25 94.55 48.4 94.55 56.55 94.55 62.3 93.5 68.05 92.45 68.05 90.95 68.05 90.85 68.05 90.75 71.75 90.5 75.1 90.2 86 89.2 86 87.75 86 86.3 75.1 85.3 64.2 84.3 48.8 84.3 33.4 84.3 22.5 85.3 11.6 86.3 11.6 87.75 11.6 89.2 22.5 90.2 25.5 90.45 28.8 90.7 28.75 90.8 28.75 90.95 Z"/>
</g>
</defs>

<g transform="matrix( 1, 0, 0, 1, 0,0) ">
<use xlink:href="#Layer2_0_FILL"/>
</g>

<g transform="matrix( 1, 0, 0, 1, 0,0) ">
<use xlink:href="#Layer1_0_FILL"/>
</g>

<g transform="matrix( 1, 0, 0, 1, 0,0) ">
<use xlink:href="#Layer0_0_FILL"/>
</g>
</svg>
