
<svg xmlns="http://www.w3.org/2000/svg" version="1.1" xmlns:xlink="http://www.w3.org/1999/xlink" preserveAspectRatio="none" x="0px" y="0px" width="60px" height="60px" viewBox="0 0 60 60">
<defs>
<linearGradient id="Gradient_1" gradientUnits="userSpaceOnUse" x1="-50.087500000000006" y1="60.025000000000006" x2="50.087500000000006" y2="-60.025000000000006" spreadMethod="pad">
<stop  offset="0%" stop-color="#CBB695"/>

<stop  offset="100%" stop-color="#B8AE8C" stop-opacity="0.12156862745098039"/>
</linearGradient>

<filter id="Filter_1" x="-40.654260849813156%" y="-40.5481907430664%" width="181.3085216996263%" height="181.0963814861328%" color-interpolation-filters="sRGB">
<feGaussianBlur in="SourceGraphic" stdDeviation="2,2" result="result1"/>
</filter>

<g id="Symbol_1_0_Layer0_0_FILL">
<path fill="url(#Gradient_1)" stroke="none" d="
M 68.45 -3.3
Q 86.65 -29.05 71.2 -52.45 54.85 -77.15 23.45 -78.4 9.15 -78.95 -5.75 -74.1 -20.7 -69.25 -33.9 -59.7 -63.1 -38.7 -73.5 -4.7 -85.35 34.2 -67.8 78.5
L -39.75 67.6
Q -6.65 53.7 18.6 38.55 53.9 17.3 68.45 -3.3
M 49.2 -29.45
L 44.2 -13.45 14.2 -16.45 -7.8 10.55 -2.8 13.55 -6.8 23.55 -35.8 21.55 -40.8 8.55 -15.8 -34.45 49.2 -29.45 Z"/>
</g>

<g id="Layer0_0_FILL">
<path fill="#D19E45" stroke="none" d="
M 35.45 17.7
Q 35.45 10.95 30.6 6.2 25.75 1.4 18.95 1.4 12.1 1.4 7.25 6.2 2.45 10.95 2.45 17.7 2.45 21.3 3.8 24.35 4.5 25.95 5.55 27.35
L 18.65 49.3 32.5 27.05
Q 33.35 25.85 33.95 24.55 35.45 21.45 35.45 17.7
M 25.9 15.8
L 25.9 14.3 20.5 14.3 20.5 25.1 22.5 25.1 22.5 26.95 15.85 26.95 15.85 25.1 17.75 25.1 17.75 14.3 12.6 14.3 12.6 15.8 10.4 15.8 10.4 11.55 28.05 11.55 28.05 15.8 25.9 15.8 Z"/>
</g>
</defs>

<g filter="url(#Filter_1)" transform="matrix( 1, 0, 0, 1, 0,0) ">
<g transform="matrix( 0.1841888427734375, 0, 0, 0.1841888427734375, 30.5,34.05) ">
<g transform="matrix( 1, 0, 0, 1, 0,0) ">
<use xlink:href="#Symbol_1_0_Layer0_0_FILL"/>
</g>
</g>
</g>

<g transform="matrix( 1, 0, 0, 1, 0,0) ">
<use xlink:href="#Layer0_0_FILL"/>
</g>
</svg>
