<?xml version="1.0" encoding="utf-8"?>
<!-- Generator: Adobe Illustrator 18.0.0, SVG Export Plug-In . SVG Version: 6.00 Build 0)  -->
<!DOCTYPE svg PUBLIC "-//W3C//DTD SVG 1.1//EN" "http://www.w3.org/Graphics/SVG/1.1/DTD/svg11.dtd">
<svg version="1.1" id="Layer_1" xmlns="http://www.w3.org/2000/svg" xmlns:xlink="http://www.w3.org/1999/xlink" x="0px" y="0px"
	 viewBox="0 0 103 153" enable-background="new 0 0 103 153" xml:space="preserve">
<path fill="#c39c4d" d="M95.7,58.7c-0.6,0.6-0.8,1.2-0.9,2v22c0,12-4.3,22.2-12.8,30.6c-8.4,8.5-18.6,12.7-30.6,12.8
	c-12,0-22.2-4.3-30.7-12.8c-8.4-8.4-12.7-18.6-12.6-30.6v-22c0-0.8-0.3-1.5-0.8-2c-0.6-0.6-1.2-0.8-2.1-0.9c-0.8,0-1.5,0.3-2.1,0.9
	c-0.6,0.6-0.8,1.2-0.8,2v22c0,13.6,4.8,25.1,14.3,34.7c9.6,9.6,21.2,14.5,34.8,14.4c13.6,0,25.1-4.8,34.7-14.4
	c9.6-9.6,14.5-21.1,14.4-34.7v-22c0-0.8-0.3-1.5-0.8-2c-0.6-0.6-1.2-0.8-2.1-0.9C96.9,57.8,96.3,58.1,95.7,58.7 M52,113.8L52,113.8
	c-17.3,0-31.5-14.2-31.5-31.5v-45C20.5,19.9,34.7,5.8,52,5.8h0c17.3,0,31.5,14.2,31.5,31.5v45C83.5,99.6,69.3,113.8,52,113.8z"/>
<g transform="matrix( 1, 0, 0, 1, 0,0) ">
	<g>
		<g id="Layer0_0_FILL">
			<path fill="#c39c4d" d="M49,126.7v19H23v5h55v-5H55v-19H49z"/>
		</g>
	</g>
</g>
<path fill="#c39c4d" d="M77.3,150.7H23.7c-1.8,0-3.2-1.4-3.2-3.2l0,0c0-1.8,1.4-3.2,3.2-3.2h53.6c1.8,0,3.2,1.4,3.2,3.2l0,0
	C80.5,149.3,79.1,150.7,77.3,150.7z"/>
</svg>
