<?xml version="1.0" encoding="utf-8"?>
<!-- Generator: Adobe Illustrator 18.0.0, SVG Export Plug-In . SVG Version: 6.00 Build 0)  -->
<!DOCTYPE svg PUBLIC "-//W3C//DTD SVG 1.1//EN" "http://www.w3.org/Graphics/SVG/1.1/DTD/svg11.dtd">
<svg version="1.1" id="Layer_1" xmlns="http://www.w3.org/2000/svg" xmlns:xlink="http://www.w3.org/1999/xlink" x="0px" y="0px"
	 viewBox="0 0 100 100" enable-background="new 0 0 100 100" xml:space="preserve">
<g>
	<g>
		<rect x="33.9" y="45.4" fill="#000002" width="34.6" height="5.3"/>
	</g>
	<g>
		<rect x="33.9" y="49.2" fill="#000002" width="3.8" height="5.5"/>
	</g>
	<g>
		<rect x="64.8" y="49.2" fill="#000002" width="3.8" height="5.5"/>
	</g>
	<g>
		<rect x="48" y="48.4" fill="#000002" width="6.4" height="30.4"/>
	</g>
	<g>
		<rect x="43.6" y="78.8" fill="#000002" width="15.3" height="2.6"/>
	</g>
	<g>
		<path fill="#BA9954" d="M33.4,67H17.8c-1,0-1.8-0.8-1.8-1.8v0c0-1,0.8-1.8,1.8-1.8h15.5c1,0,1.8,0.8,1.8,1.8v0
			C35.1,66.2,34.3,67,33.4,67z"/>
	</g>
	<g>
		<path fill="#BA9954" d="M16,65.6l-5.9-22.2c-0.2-0.9,0.3-1.9,1.3-2.2h0c0.9-0.2,1.9,0.3,2.2,1.3l5.9,22.2c0.2,0.9-0.3,1.9-1.3,2.2
			h0C17.2,67.1,16.2,66.5,16,65.6z"/>
	</g>
	<g>
		<rect x="32.7" y="65.2" fill="#BA9954" width="2.4" height="15.9"/>
	</g>
	<g>
		<rect x="15.8" y="65.2" fill="#BA9954" width="2.4" height="15.9"/>
	</g>
	<g>
		<rect x="17.1" y="72.6" fill="#BA9954" width="16.8" height="1.6"/>
	</g>
	<g>
		<path fill="#BA9954" d="M69,67h15.6c1,0,1.8-0.8,1.8-1.8v0c0-1-0.8-1.8-1.8-1.8H69c-1,0-1.8,0.8-1.8,1.8v0C67.2,66.2,68,67,69,67z
			"/>
	</g>
	<g>
		<path fill="#BA9954" d="M86.6,65.6l5.9-22.2c0.2-0.9-0.3-1.9-1.3-2.2h0c-0.9-0.2-1.9,0.3-2.2,1.3l-5.9,22.2
			c-0.2,0.9,0.3,1.9,1.3,2.2h0C85.4,67.1,86.3,66.5,86.6,65.6z"/>
	</g>
	<g>
		<rect x="67.2" y="65.2" fill="#BA9954" width="2.4" height="15.9"/>
	</g>
	<g>
		<rect x="84" y="65.2" fill="#BA9954" width="2.4" height="15.9"/>
	</g>
	<g>
		<rect x="68.4" y="72.6" fill="#BA9954" width="16.8" height="1.6"/>
	</g>
	<g>
		<path fill="#000002" d="M53.9,38.3c0,0,3.4,2.1,4.7-3.2s-2.3-0.2-2.3-0.2s0.6-1.6-0.1,0.5s-3.1,2.3-3.1,2.3L53.9,38.3z"/>
	</g>
	<g>
		<g>
			<path fill="#000002" d="M55.5,36.1h-0.7v-0.6l-0.1,0.3c-0.1,0.5-0.2,1-0.4,1.4h1.2V36.1z"/>
			<path fill="#000002" d="M62.2,31.2c0,0.3,0,0.5,0,0.8c-0.6,0.2-1.2,0.4-1.9,0.3c-0.2,1.1,0.9,1.8,2.1,1.6c0.1,0,0.2,0,0.2-0.1
				c0.8,1.7,2.4,2.3,4.4,2.3c2.7,0,5.6-1.7,5.6-3.2c0-0.5-0.3-0.7-0.9-0.7c-0.5,1-1.5,1.5-2.9,1.5c-1.3,0-2.4-0.6-2.7-2
				c6-2.9,7.4-4.7,7.4-7c0-1.2-0.7-2.6-3.5-2.6C64.9,22.1,62.2,27.7,62.2,31.2z M70.2,24.2c0.5,0,0.9,0.4,0.9,1.1
				c0,1.8-2.1,3.7-5.1,5.3C66.1,28.7,67.1,24.2,70.2,24.2z"/>
			<path fill="#000002" d="M47.9,33.3c0,2.1,1.4,2.7,2.9,2.7c1.3,0,2.9-0.7,4.3-1.7l-0.2,0.7h1.7h1.9l2.8-11.2h1.5
				c1,0,1.5-0.7,1.3-1.6h-2.4l0.2-0.8c0.5-2,1.3-3.8,2.7-3.8c0.8,0,1.2,0.3,1.2,0.8c0,0.4-0.2,1.1-0.5,1.8c0.4,0.2,0.8,0.4,1.2,0.4
				c1.2,0.1,2.2-0.7,2.2-2.2c0-1.8-1.3-2.6-3.9-2.6c-3,0-5.6,2.1-6.5,5.6l-0.2,1h-0.6c-1,0-1.5,0.7-1.3,1.6h1.6l-2.1,8.6
				c-0.8,0.6-1.9,1-2.9,1c-0.8,0-1.3-0.5-0.9-2l2.2-9c-0.4-0.2-0.9-0.4-1.5-0.4c-0.8,0-1.6,0.2-2.1,0.8c-0.8-0.6-1.8-0.9-3.2-0.9
				c-4.3,0-7.8,4.7-7.8,9.4c0,0.2,0,0.3,0,0.5c-1.5,1-3.4,1.7-5,1.7c-1.7,0-3-0.8-3-2.9c0-3.9,2-6.8,3.8-6.8c0.8,0,1.2,0.3,1.2,0.8
				c0,0.4-0.2,1.1-0.5,1.8c0.3,0.3,0.8,0.4,1.2,0.4c1.2,0,2.2-0.7,2.2-2.2c0-1.8-1.2-2.6-3.8-2.6c-4.7,0-7.9,5-7.9,9.1
				c0,3.3,2.4,4.8,5.3,4.8c2.2,0,4.8-0.9,6.9-2.5c0.5,1.3,1.5,2.5,3.6,2.5C45,36.1,46.6,34.9,47.9,33.3z M43.2,31.3
				c0-2.9,1.3-7.2,5.1-7.2c0.5,0,0.9,0.1,1.5,0.2L48,31.6c-0.8,1-2.1,1.7-3.1,1.7C43.9,33.3,43.2,32.7,43.2,31.3z"/>
		</g>
		<g>
			<path fill="#000002" d="M58.7,34.5c-0.1,0-0.8,4.9-3.1,5.2c-2.5,0.3-3.1-1.9-3.1-1.9s1.9,0.4,2.5-3.2c0.6-3.6,1.8,0.4,1.8,0.4
				L58.7,34.5z"/>
		</g>
	</g>
</g>
</svg>
