
<svg xmlns="http://www.w3.org/2000/svg" version="1.1" xmlns:xlink="http://www.w3.org/1999/xlink" preserveAspectRatio="none" x="0px" y="0px" width="20px" height="25px" viewBox="0 0 20 25">
<defs>
<g id="Layer1_0_FILL">
<path fill="#d19e45" stroke="none" d="
M 8.9 20.8
Q 8.9 21.95 9.7 22.7 10.55 23.45 11.7 23.45
L 11.85 23.45
Q 13.05 23.45 13.85 22.7 14.65 21.95 14.65 20.8
L 14.65 16.6
Q 14.65 15.45 13.85 14.7 13.05 13.95 11.85 13.95
L 11.7 13.95
Q 10.55 13.95 9.7 14.7 8.9 15.5 8.9 16.6
L 8.9 20.8
M 10.5 16.6
Q 10.5 16.05 10.95 15.75 11.3 15.5 11.8 15.5 12.25 15.5 12.65 15.8 13.05 16.1 13.05 16.6
L 13.05 20.8
Q 13.05 21.3 12.65 21.6 12.25 21.9 11.8 21.9 11.35 21.9 10.95 21.6 10.5 21.25 10.5 20.8
L 10.5 16.6
M 15.5 9.15
L 14.65 7.95 3.9 16.1 4.8 17.3 15.5 9.15
M 10.5 8.55
L 10.5 4.4
Q 10.5 3.25 9.7 2.5 8.85 1.75 7.7 1.75
L 7.55 1.75
Q 6.4 1.75 5.55 2.5 4.75 3.25 4.75 4.4
L 4.75 8.55
Q 4.75 9.7 5.55 10.5 6.4 11.25 7.55 11.25
L 7.7 11.25
Q 8.85 11.25 9.7 10.5 10.5 9.7 10.5 8.55
M 6.35 4.4
Q 6.35 3.85 6.8 3.55 7.15 3.3 7.6 3.3 8.1 3.3 8.5 3.6 8.9 3.9 8.9 4.4
L 8.9 8.55
Q 8.9 9.05 8.5 9.35 8.1 9.65 7.6 9.65 7.2 9.65 6.8 9.35 6.35 9.05 6.35 8.55
L 6.35 4.4 Z"/>
</g>
</defs>

<g transform="matrix( 1, 0, 0, 1, 0,0) ">
<use xlink:href="#Layer1_0_FILL"/>
</g>
</svg>
