
<svg xmlns="http://www.w3.org/2000/svg" version="1.1" xmlns:xlink="http://www.w3.org/1999/xlink" preserveAspectRatio="none" x="0px" y="0px" width="30px" height="32px" viewBox="0 0 30 32">
<defs>
<g id="Layer1_0_FILL">
<path fill="#c39c4d" stroke="none" d="
M 11.7 2.3
Q 11.7 1.45 11.2 0.8
L 7.4 0.8
Q 6.85 1.45 6.85 2.3
L 6.85 7.6
Q 6.85 7.65 6.85 7.75 5.6 8.2 4.6 9.2 2.7 11.15 2.7 13.85
L 2.7 29.85
Q 2.7 30.65 3.3 31.25 3.9 31.85 4.7 31.85
L 13.85 31.85
Q 14.65 31.85 15.25 31.25 15.85 30.65 15.85 29.85
L 15.85 29.45
Q 15.85 29.35 15.85 29.2
L 15.85 13.85
Q 15.85 11.15 13.9 9.2 12.9 8.2 11.7 7.75 11.7 7.65 11.7 7.6
L 11.7 2.3
M 6 10.55
Q 6.45 10.05 6.95 9.9 6.45 11.3 6.35 12.45 6.25 13 6.3 13.3
L 6.3 16 13.4 16 13.4 18.45 6.3 18.45 6.3 20.45 13.35 20.45 13.35 26.2 6.3 26.2 6.3 29.45 5 29.45
Q 4.95 15.85 5 13.2 5 11.55 6 10.55
M 28.35 22.95
L 28.35 18.2
Q 28.35 17.15 27.8 16.65
L 18.45 16.65
Q 17.9 17.15 17.9 18.2
L 17.9 22.95
Q 17.9 23.1 17.9 23.25 17.9 23.35 17.9 23.5 17.9 24.95 19.4 26 20.7 26.9 22.4 27.05
L 22.4 29.4
Q 22.4 29.55 22.45 29.65
L 20.3 29.65
Q 19.95 29.65 19.65 29.9 19.4 30.2 19.4 30.55
L 19.4 30.6
Q 19.4 30.95 19.65 31.2 19.95 31.5 20.3 31.5
L 26.1 31.5
Q 26.45 31.5 26.7 31.2 27 30.95 27 30.6
L 27 30.55
Q 27 30.2 26.7 29.9 26.45 29.65 26.1 29.65
L 24.15 29.65
Q 24.15 29.55 24.15 29.4
L 24.15 27
Q 25.65 26.8 26.75 26 28.3 24.95 28.3 23.5 28.35 23.25 28.35 22.95
M 27.25 17.8
L 27.25 21.25 19.05 21.25 19.05 17.8 27.25 17.8 Z"/>
</g>
</defs>

<g transform="matrix( 1, 0, 0, 1, 0,0) ">
<use xlink:href="#Layer1_0_FILL"/>
</g>
</svg>
