
<svg xmlns="http://www.w3.org/2000/svg" version="1.1" xmlns:xlink="http://www.w3.org/1999/xlink" preserveAspectRatio="none" x="0px" y="0px" width="35px" height="50px" viewBox="0 0 35 50">
<defs>
<g id="Layer4_0_FILL">
<path fill="" stroke="none" d="
M 234 171.6
Q 235.05 173.95 236.65 176.05
L 256.25 208.95 256.5 209.9 276.95 175.65
Q 278.25 173.85 279.15 171.9 281.35 167.25 281.35 161.65 281.35 151.5 274.1 144.4 266.85 137.25 256.65 137.25 246.4 137.25 239.15 144.4 231.95 151.5 231.95 161.65 231.95 167.05 234 171.6
M 257 176.8
Q 250.9 176.8 246.55 172.5 242.3 168.2 242.3 162.1 242.3 155.95 246.55 151.65 250.9 147.35 257 147.35 263.15 147.35 267.4 151.65 271.75 155.95 271.75 162.1 271.75 168.2 267.4 172.5 263.15 176.8 257 176.8 Z"/>
</g>

<g id="Layer3_0_FILL">
<path fill="" stroke="none" d="
M 24.45 13.9
L 21.35 13.9 21.35 16.15 24.45 16.15 24.45 13.9 Z"/>
</g>

<g id="Layer2_0_FILL">
<path fill="" stroke="none" d="
M 32.5 24.15
Q 34 21.05 34 17.3 34 10.55 29.15 5.8 24.3 1 17.5 1 10.65 1 5.8 5.8 1 10.55 1 17.3 1 20.9 2.35 23.95 3.05 25.55 4.1 26.95
L 17.2 48.9 31.05 26.65
Q 31.9 25.45 32.5 24.15
M 26.6 15.4
L 24.45 15.4 24.45 13.9 19.05 13.9 19.05 24.7 21.05 24.7 21.05 26.55 14.4 26.55 14.4 24.7 16.3 24.7 16.3 13.9 11.15 13.9 11.15 15.4 8.95 15.4 8.95 11.15 26.6 11.15 26.6 15.4 Z"/>
</g>
</defs>

<g transform="matrix( 1, 0, 0, 1, 0,0) ">
<use xlink:href="#Layer4_0_FILL"/>
</g>

<g transform="matrix( 1, 0, 0, 1, 0,0) ">
<use xlink:href="#Layer3_0_FILL"/>
</g>

<g transform="matrix( 1, 0, 0, 1, 0,0) ">
<use xlink:href="#Layer2_0_FILL"/>
</g>
</svg>
